# xmcd
#
# Track frame offsets:
#	150
#	16734
#	30810
#	48678
#	64950
#	81972
#	111344
#	131505
#	145191
#	162847
#	176093
#	196047
#
# Disc length: 2853 seconds
#
# Revision: 1
# Processed by: cddbd v1.5.2PL0 Copyright (c) Steve Scherf et al.
# Submitted via: audiograbber 1.83.01
#
DISCID=9b0b230c
DTITLE=Decoys, The - Shot From The Saddle
DYEAR=2001
DGENRE=R&B
TTITLE0=Shot From The Saddle
TTITLE1=Nadine
TTITLE2=Down In Texas
TTITLE3=Bits and Pieces
TTITLE4=24-7-365
TTITLE5=Neighbor, Neighbor
TTITLE6=Melissa
TTITLE7=Get Down
TTITLE8=Good Days, Bad Days
TTITLE9=What's Up with That
TTITLE10=Her Mind Is Gone
TTITLE11=Desire
EXTD=Recorded at FAME studio in Muscle Shoals, Alabama. David Hood of "The Swam
EXTD=pers" plays bass. Scott Boyer of the group "Cowboy" sings and plays guitar
EXTD=
EXTT0=
EXTT1=
EXTT2=
EXTT3=
EXTT4=
EXTT5=
EXTT6=
EXTT7=
EXTT8=
EXTT9=
EXTT10=
EXTT11=
PLAYORDER=
